<svg height="171.61601" viewBox="0 0 146.38036 42.644798" width="582.696219" xmlns="http://www.w3.org/2000/svg" xmlns:xlink="http://www.w3.org/1999/xlink"><clipPath id="a"><path d="m624.9 44.946h119.201v34.424h-119.201z"/></clipPath><g clip-path="url(#a)" transform="matrix(1.25 0 0 -1.25 -781.125 99.13307)"><path d="m0 0c-4.728 1.855-10.014 2.564-15.072 2.495-4.8-.065-9.588-.754-14.311-1.561-5.37-.918-10.7-2.057-16.019-3.226-9.26-2.034-18.579-4.378-28.054-5.167-2.915-.243-5.87-.347-8.73.379-2.813.713-5.325 2.223-7.532 4.079.014-.725.128-1.458.31-2.158.357-1.371 1.154-2.52 2.011-3.627-1.913-.15-3.84-.255-5.757-.1-1.792.145-3.57.55-5.268 1.139-1.546.536-3.134 1.173-4.439 2.166-.904.688-1.924 1.643-2.745 2.407 0-1.81.941-3.731 1.95-5.237 1.387-2.152 3.145-4.134 5.102-5.806 1.837-1.57 3.885-2.774 6.213-3.496 2.498-.775 5.143-1.003 7.746-.828 1.41.094 2.813.304 4.192.615 1.13.254 2.229.596 3.357.868.415.1.836.218 1.254.069.504-.18.547-.692.487-1.156-.145-1.135-.818-2.292-1.73-2.983-.854-.646-1.871-.709-2.78-.13-.808.514-1.541 1.041-2.505 1.228-1.213.236-2.554.102-3.773-.02-1.381-.139-2.757-.371-4.149-.371-1.901 0-3.646.459-5.409 1.123-1.254.472-2.603 1.093-3.821 1.651 1.631-3.689 5.272-6.302 8.652-8.28 4.425-2.589 9.351-4.24 14.398-5.085 5.071-.849 10.211-.73 15.3-.097 5.247.653 10.414 1.836 15.45 3.437 4.457 1.417 8.8 3.158 13.095 5.002 4.591 1.97 9.127 4.058 13.83 5.754 3.728 1.345 7.57 2.543 11.509 3.075 3.869.523 8.511.577 11.652-2.117 1.438-1.233 2.27-2.983 2.356-4.877.088-1.062.095-2.175-.038-3.235-.085-.681-.149-1.407-.372-2.059 4.806 4.271 6.614 11.498 3.811 17.422-1.414 2.988-4.576 6.566-10.171 8.707" fill="#fff" transform="translate(730.506 76.8069)"/><path d="m0 0c-9.901.946-26.918-3.095-40.962-6.182-11.257-2.473-20.409-4.031-26.553-3.796-3.446.233-6.835 1.22-9.549 3.438.428-1.066 2.516-4.07 3.406-4.402-3.592-.296-7.286-.711-10.846.065-2.843.606-5.985 1.644-8.231 3.731 1.734-3.228 4.383-6.211 7.304-8.409 5.224-3.931 12.489-3.806 18.46-1.88.11.036 1.323.388 1.958.388 1.535-.054 2.653-1.126 1.774-3.62-.735-1.876-2.236-3.342-3.968-3.368-2.299 0-2.455 1.824-5.084 1.739-4.6.122-7.553-1.908-13.727 1.54 1.253-1.241 8.502-9.187 24.029-10.824 3.957-.414 8.398-.072 10.466.145 13.463 1.414 23.963 5.995 33.227 10.036 7.858 3.54 17.287 7.225 24.343 7.616 5.923.477 10.521-1.436 12.302-5.118.797-1.646.983-3.528.582-5.479 5.911 8.439 3.304 22.689-18.931 24.38" fill="#ed1c24" transform="translate(719.2582 78.0587)"/><path d="m0 0c.014-.01.013-.01 0 0" fill="#ed1c24" transform="translate(634.2589 62.1792)"/><g fill="#fff200"><path d="m0 0c3.074.839 5.658-.799 6.66-3.11l.001-.001c.128-.286.265-.347.407-.349.28-.003 2.127.326 2.749 1.09 0 0 .625-2.296-2.08-3.67 0 0-.381-.186-.384-.591-.002-.387-.204-2.354-.309-2.897-.046-.242-.246-.761.23-.781.394-.016 1.566.272 2.299 2.289.023.126.005-.009.005-.009-.542-4.447-3.298-7.757-6.06-8.649-1.93-.624-1.673.645-1.339 1.425 1.149 2.996 1.174 4.472 1.344 6.375.178 1.984-.297 7.85-3.523 8.878m-2.218-3.967c-.841-.183-1.328-2.412-1.425-5.573-.097-3.165.135-5.974 1.275-5.737 1.137.248 1.23 3.187 1.308 6.349.087 3.161-.358 5.14-1.158 4.961m4.542-4.161c-.13-4.712-1.386-9.214-4.828-9.969-3.208-.531-4.915 4.55-4.49 8.003.208 4.775 1.973 8.157 4.736 8.917 2.621.713 4.7-2.269 4.582-6.951" transform="translate(676.5761 68.6741)"/><path d="m0 0c-2.683-1.709-4.689-6.026-4.93-10.549-.049-.92-.455-7.48 4.385-9.66-3.167-.497-6.616-.92-8.31-.976 0 0 .492 1.602.595 4.314.085 2.238-.259 4.102-1.075 3.982-.603-.089-1.304-2.209-1.354-4.074-.065-2.462.471-4.282.471-4.282-1.897-.049-5.334-.106-9.685.746.584.092 5.485 2.86 6.109 8.625.695 6.421-4.956 8.097-7.531 9.171 3.687-.115 6.26.102 11.622.897 0 0-.657-1.037-.667-3.937-.01-2.651.558-4.056 1.082-4.048.619.009 1.2 1.385 1.303 4.201.107 2.89-.386 3.992-.386 3.992 2.476.443 4.155.669 8.371 1.598" transform="translate(673.3627 69.1783)"/><path d="m0 0c1.062-.263 5.756-1.791 6.048-8.316.266-5.976-2.193-9.566-2.933-10.506 0 0 1.612.539 3.285 1.183 1.818.7 3.616 1.42 3.616 1.42s-.506 1.323.115 3.645c.673 2.513 1.636 3.233 1.636 3.233s-.231-1.02.503-2.933c.725-1.889 1.56-2.38 1.56-2.38l2.769 1.244s-.861 1.889.438 4.73c1.098 2.402 2.45 5.322 1.338 8.838-.573 1.812-1.316 2.854-1.688 3.296-.43-.073-3.927-.739-4.707-.894.854-.35 2.686-1.449 3.022-4.492.231-2.094-.84-3.88-.84-3.88s.107.939-.649 2.01c-.721 1.021-1.418 1.265-1.418 1.265s-.069-1.425-.907-2.992c-.646-1.207-1.487-1.862-1.487-1.862s.677 2.61.004 5.258c-.622 2.447-1.932 3.399-2.49 3.704-1.169-.248-6.139-1.334-7.215-1.571m24.538 4.692c.278-2.452-.107-5.813-1.076-6.041-.794-.188-1.242 3.551-.672 5.805-1.015-.149-3.917-.613-5.189-.833 4.425-5.036 2.344-11.825-.165-16.677 1.484.669 4.09 1.787 5.533 2.379-.688 2.488-.228 5.916.646 6.2.763.248 1.48-3.805.764-5.633 1.324.571 3.158 1.212 5.089 1.88-2.458 1.092-4.571 8.59.159 13.413-1.109-.071-4.061-.368-5.089-.493" transform="translate(683.0206 71.2625)"/><path d="m0 0c-.358-.06-.779-.019-1.219.118-.693.216-1.18.417-1.772.638l.043 2.371c.288-.603 1.182-1.321 1.676-1.254.133.017.245.118.27.243.04.198-.07.454-.309.718s-.672.702-1.039 1.109c-1.634 1.812-.946 3.047-.567 3.374.542.468 1.206.361 1.479.304 1.003-.208 1.789-1.046 2.159-1.876.216-.485.36-1.015.273-1.585-.221.577-1.66 2.185-2.173 1.545-.345-.43.472-1.049 1.318-1.798 1.141-1.01 1.281-1.76 1.001-2.831-.158-.605-.552-.977-1.14-1.076" transform="translate(734.0744 64.9105)"/><path d="m0 0s-.041 1.404.514 2.744c.556 1.339 1.379 2.072 1.926 1.588.525-.467.109-1.381-.34-1.938-.448-.557-.727-.824-1.305-1.341-.577-.517-.795-1.053-.795-1.053m.987-1.058c1.302 1.221 2.793 2.288 3.345 3.849.553 1.563.544 2.628-.555 3.316-1.033.644-2.926.604-4.732-1.505-1.975-2.305-2.349-6.296-1.783-8.235.487-1.665 1.439-3.2 3.263-2.841 3.2.63 3.088 5.25 3.088 5.25s-1.194-2.122-2.277-2.191c-1.136-.072-1.408 1.364-.349 2.357" transform="translate(713.8787 70.1355)"/><path d="m0 0c.444 1.093 1.108 1.694 1.556 1.302.43-.377.097-1.124-.264-1.579s-.586-.674-1.053-1.097c-.466-.425-.64-.862-.64-.862s-.042 1.143.401 2.236m.749-4.953c-1.074-.086-1.196 1.047-.341 1.861 1.05.999 2.256 1.875 2.695 3.149.44 1.276.426 2.142-.471 2.697-.843.52-2.4.443-3.855-1.282-1.592-1.887-1.929-5.18-1.48-6.762.454-1.596 1.295-2.628 2.894-2.205 2.434.644 3.075 4.293 3.075 4.293s-1.375-1.659-2.517-1.751" transform="translate(721.3199 72.9361)"/><path d="m0 0c.775-2.736.234-7.599-1.492-9.678 2.13.208 4.11.244 5.981-.054l.107 3.827c-.708-1.738-4.626-3.95-1.496 5.004-.769.258-1.66.577-3.1.901" transform="translate(725.5642 75.4837)"/><path d="m0 0c.112 0 .154.006.188.032.034.025.054.067.054.111 0 .061-.032.107-.09.126-.031.011-.078.015-.175.015h-.096v-.284zm.007.374c.094 0 .139-.004.192-.021.092-.029.155-.113.155-.208 0-.099-.067-.181-.175-.212l.182-.4h-.126l-.168.379-.009.002h-.078-.085l-.014-.002v-.379h-.114v.841h.24zm-.614-.418c0-.36.289-.652.65-.652.358 0 .649.292.649.654 0 .364-.282.647-.643.647-.378 0-.656-.275-.656-.649m1.397-.002c0-.419-.324-.74-.747-.74-.426 0-.748.319-.748.74 0 .429.318.742.752.742.419 0 .743-.324.743-.742" transform="translate(736.3152 64.1878)"/></g></g></svg>